<svg width="134" height="150" viewBox="0 0 134 150" fill="none" xmlns="http://www.w3.org/2000/svg">
<g filter="url(#filter0_ii_3494_8682)">
<path d="M133.272 25.0605H0.797363V107.219C0.797363 109.469 1.36192 111.683 2.43932 113.658C4.23894 116.958 7.33712 119.353 10.9831 120.265L15.3472 121.356C16.5609 121.659 17.7968 121.866 19.0431 121.975L51.4057 124.789H81.1752L118.288 121.988C119.835 121.871 121.359 121.543 122.818 121.012L123.666 120.704C126.98 119.499 129.746 117.134 131.452 114.047C132.646 111.886 133.272 109.458 133.272 106.989V25.0605Z" fill="url(#paint0_linear_3494_8682)"/>
</g>
<g filter="url(#filter1_dii_3494_8682)">
<path d="M95.0151 88.9565H37.854V109.897C37.854 111.202 37.996 112.503 38.2774 113.777L38.69 115.645C39.1278 117.626 40.0993 119.451 41.4994 120.92C43.5047 123.025 46.2539 124.261 49.159 124.364L62.6899 124.845H70.4393L83.3122 124.401C86.9057 124.276 90.2232 122.442 92.2388 119.464C92.8804 118.516 93.3736 117.476 93.7013 116.38L94.1492 114.881C94.7478 112.878 95.0502 110.798 95.0468 108.708L95.0151 88.9565Z" fill="url(#paint1_linear_3494_8682)" fill-opacity="0.5" shape-rendering="crispEdges"/>
</g>
<path d="M74.2161 102.415L66.6896 110.001L59.1631 102.415" stroke="white" stroke-opacity="0.8" stroke-width="1.5" stroke-linecap="square" stroke-linejoin="round"/>
<g filter="url(#filter2_dii_3494_8682)">
<path d="M95.0519 25.0288H37.854L37.8544 62.0392H95.0518L95.0519 25.0288Z" fill="url(#paint2_linear_3494_8682)" fill-opacity="0.5" shape-rendering="crispEdges"/>
</g>
<g filter="url(#filter3_dii_3494_8682)">
<path d="M95.0519 63.1606H37.854L37.8544 87.8343H95.0518L95.0519 63.1606Z" fill="url(#paint3_linear_3494_8682)" fill-opacity="0.5" shape-rendering="crispEdges"/>
</g>
<path d="M74.2161 48.3169L66.6896 40.7301L59.1631 48.3169" stroke="white" stroke-opacity="0.8" stroke-width="1.5" stroke-linecap="square" stroke-linejoin="round"/>
<path fill-rule="evenodd" clip-rule="evenodd" d="M66.4999 70.0459L66.6438 70.1675C66.7841 70.1949 66.9153 70.262 67.0219 70.3625L68.4099 71.6606L71.9993 74.695L71.3537 75.4587L71.1589 75.2939V79.2013C71.1586 79.413 71.0767 79.6161 70.9312 79.7659C70.7856 79.9156 70.5882 79.9998 70.3824 80.0001H68.0531V75.7237C68.0531 75.6685 68.0083 75.6237 67.9531 75.6237H65.0471C64.9919 75.6237 64.9471 75.6685 64.9471 75.7237V80.0001H62.6174C62.4116 79.9998 62.2142 79.9156 62.0686 79.7659C61.9231 79.6161 61.8412 79.413 61.8409 79.2013V75.2939L61.6461 75.4587L61.0005 74.695L64.5861 71.6638L65.9773 70.3625C66.0841 70.2618 66.2156 70.1947 66.3562 70.1674L66.4999 70.0459Z" fill="white" fill-opacity="0.8"/>
<g opacity="0.8" filter="url(#filter4_i_3494_8682)">
<path d="M24.7719 96.3812C24.6799 96.2893 24.5551 96.2377 24.425 96.2378C24.295 96.2378 24.1703 96.2895 24.0783 96.3815C23.9863 96.4735 23.9346 96.5982 23.9346 96.7283C23.9345 96.8583 23.9861 96.9831 24.078 97.0751C24.4425 97.4396 24.7316 97.8723 24.9289 98.3485C25.1262 98.8247 25.2277 99.3351 25.2277 99.8505C25.2277 100.366 25.1262 100.876 24.9289 101.353C24.7316 101.829 24.4425 102.261 24.078 102.626C23.9863 102.718 23.9348 102.843 23.9349 102.973C23.9351 103.103 23.9867 103.227 24.0786 103.319C24.1706 103.411 24.2952 103.463 24.4252 103.463C24.5551 103.463 24.6798 103.412 24.7719 103.32C25.692 102.4 26.2089 101.152 26.2089 99.8505C26.2089 98.5493 25.692 97.3014 24.7719 96.3812V96.3812Z" fill="white"/>
<path d="M20.5371 93.5221C20.4546 93.4817 20.3625 93.4653 20.2711 93.4748C20.1797 93.4842 20.0929 93.5192 20.0204 93.5756L15.7376 96.9066H12.9622C12.7021 96.9069 12.4526 97.0104 12.2687 97.1943C12.0847 97.3783 11.9813 97.6277 11.981 97.8878V101.813C11.9813 102.073 12.0847 102.322 12.2687 102.506C12.4526 102.69 12.7021 102.794 12.9622 102.794H15.7376L20.0204 106.125C20.0929 106.181 20.1798 106.216 20.2711 106.226C20.3625 106.235 20.4546 106.219 20.5371 106.179C20.6197 106.138 20.6892 106.076 20.7378 105.998C20.7864 105.92 20.8122 105.83 20.8122 105.738V93.9628C20.8122 93.871 20.7864 93.781 20.7378 93.7031C20.6892 93.6251 20.6196 93.5624 20.5371 93.5221V93.5221ZM12.9622 97.8878H15.4135V101.813H12.9622V97.8878Z" fill="white"/>
<path d="M22.3434 98.1159C22.2978 98.1615 22.2617 98.2156 22.237 98.2751C22.2124 98.3346 22.1997 98.3984 22.1997 98.4629C22.1997 98.5273 22.2124 98.5911 22.2371 98.6506C22.2617 98.7101 22.2979 98.7642 22.3435 98.8098C22.4801 98.9464 22.5885 99.1087 22.6625 99.2873C22.7365 99.4658 22.7745 99.6572 22.7745 99.8505C22.7745 100.044 22.7365 100.235 22.6625 100.414C22.5885 100.592 22.4801 100.755 22.3435 100.891C22.2514 100.983 22.1997 101.108 22.1997 101.238C22.1997 101.368 22.2514 101.493 22.3434 101.585C22.4354 101.677 22.5602 101.729 22.6903 101.729C22.8204 101.729 22.9452 101.677 23.0372 101.585C23.265 101.357 23.4458 101.087 23.569 100.789C23.6923 100.492 23.7558 100.173 23.7558 99.8505C23.7558 99.5283 23.6923 99.2093 23.569 98.9117C23.4458 98.6141 23.265 98.3437 23.0372 98.1159C22.9917 98.0703 22.9376 98.0342 22.8781 98.0095C22.8185 97.9849 22.7547 97.9722 22.6903 97.9722C22.6259 97.9722 22.5621 97.9849 22.5025 98.0095C22.443 98.0342 22.3889 98.0704 22.3434 98.1159Z" fill="white"/>
</g>
<g filter="url(#filter5_i_3494_8682)">
<path d="M5.3291 74.376H31.6718" stroke="white" stroke-opacity="0.5"/>
</g>
<g opacity="0.8" filter="url(#filter6_i_3494_8682)">
<path d="M18.8493 42.4717C17.5878 42.4717 16.3547 42.8458 15.3058 43.5466C14.2569 44.2474 13.4394 45.2436 12.9567 46.409C12.474 47.5745 12.3476 48.8569 12.5937 50.0941C12.8398 51.3314 13.4473 52.4678 14.3393 53.3598C15.2313 54.2518 16.3678 54.8593 17.605 55.1054C18.8422 55.3515 20.1247 55.2252 21.2901 54.7424C22.4556 54.2597 23.4517 53.4422 24.1525 52.3933C24.8534 51.3444 25.2274 50.1113 25.2274 48.8498C25.2255 47.1588 24.5529 45.5377 23.3572 44.3419C22.1615 43.1462 20.5403 42.4736 18.8493 42.4717V42.4717ZM21.084 49.258L18.1402 51.2205C18.0663 51.2699 17.9805 51.2982 17.8917 51.3025C17.803 51.3069 17.7148 51.287 17.6364 51.2451C17.5581 51.2032 17.4927 51.1408 17.447 51.0646C17.4014 50.9883 17.3774 50.9011 17.3774 50.8123V46.8873C17.3774 46.7985 17.4014 46.7113 17.447 46.6351C17.4927 46.5588 17.5581 46.4964 17.6364 46.4545C17.7148 46.4126 17.803 46.3927 17.8917 46.3971C17.9805 46.4014 18.0663 46.4297 18.1402 46.4791L21.084 48.4416C21.1512 48.4864 21.2063 48.5471 21.2444 48.6183C21.2825 48.6895 21.3024 48.769 21.3024 48.8498C21.3024 48.9306 21.2825 49.0101 21.2444 49.0813C21.2063 49.1525 21.1512 49.2132 21.084 49.258V49.258Z" fill="white"/>
</g>
<g opacity="0.8" filter="url(#filter7_i_3494_8682)">
<path d="M114.117 42.2031C112.856 42.2031 111.623 42.5772 110.574 43.2781C109.525 43.979 108.707 44.9752 108.224 46.1408C107.742 47.3063 107.615 48.5889 107.861 49.8262C108.107 51.0636 108.715 52.2002 109.607 53.0922C110.499 53.9843 111.636 54.5918 112.873 54.8379C114.11 55.0841 115.393 54.9577 116.558 54.475C117.724 53.9922 118.72 53.1746 119.421 52.1256C120.122 51.0767 120.496 49.8434 120.496 48.5818C120.494 46.8907 119.822 45.2694 118.626 44.0736C117.43 42.8777 115.809 42.2051 114.117 42.2031V42.2031ZM116.427 50.1976C116.473 50.2431 116.509 50.2972 116.534 50.3567C116.558 50.4163 116.571 50.4801 116.571 50.5446C116.571 50.6091 116.558 50.6729 116.534 50.7325C116.509 50.7921 116.473 50.8462 116.427 50.8918C116.382 50.9374 116.328 50.9735 116.268 50.9982C116.209 51.0228 116.145 51.0355 116.08 51.0355C116.016 51.0354 115.952 51.0227 115.892 50.998C115.833 50.9733 115.779 50.937 115.733 50.8914L114.117 49.2757L112.502 50.8914C112.41 50.9833 112.285 51.0348 112.155 51.0347C112.025 51.0347 111.9 50.983 111.808 50.891C111.716 50.7991 111.665 50.6744 111.665 50.5444C111.664 50.4144 111.716 50.2896 111.808 50.1976L113.424 48.5818L111.808 46.9661C111.716 46.874 111.664 46.7493 111.665 46.6192C111.665 46.4892 111.716 46.3645 111.808 46.2726C111.9 46.1806 112.025 46.129 112.155 46.1289C112.285 46.1288 112.41 46.1804 112.502 46.2722L114.117 47.888L115.733 46.2722C115.825 46.1804 115.95 46.1288 116.08 46.1289C116.21 46.129 116.335 46.1806 116.427 46.2726C116.519 46.3645 116.57 46.4892 116.57 46.6192C116.57 46.7493 116.519 46.874 116.427 46.9661L114.811 48.5818L116.427 50.1976Z" fill="white"/>
</g>
<g filter="url(#filter8_i_3494_8682)">
<path d="M100.659 74.3765H127.002" stroke="white" stroke-opacity="0.5"/>
</g>
<g opacity="0.9" filter="url(#filter9_i_3494_8682)">
<path d="M120.005 95.2651H108.229C108.165 95.2651 108.101 95.2778 108.042 95.3025C107.982 95.3271 107.928 95.3633 107.882 95.4088C107.837 95.4544 107.801 95.5085 107.776 95.568C107.751 95.6276 107.739 95.6914 107.739 95.7558V104.097C107.739 104.357 107.843 104.607 108.027 104.791C108.21 104.975 108.46 105.078 108.72 105.079H119.515C119.775 105.078 120.024 104.975 120.208 104.791C120.392 104.607 120.496 104.357 120.496 104.097V95.7558C120.496 95.6914 120.483 95.6276 120.459 95.568C120.434 95.5085 120.398 95.4544 120.352 95.4088C120.307 95.3633 120.253 95.3271 120.193 95.3025C120.134 95.2778 120.07 95.2651 120.005 95.2651V95.2651ZM108.72 99.1905H111.173V101.153H108.72V99.1905ZM112.155 99.1905H119.515L119.515 101.153H112.155V99.1905ZM108.72 102.134H111.173V104.097H108.72V102.134ZM119.515 104.097H112.155V102.134H119.515L119.515 104.097L119.515 104.097Z" fill="white"/>
</g>
<defs>
<filter id="filter0_ii_3494_8682" x="0.797363" y="25.0605" width="132.475" height="99.728" filterUnits="userSpaceOnUse" color-interpolation-filters="sRGB">
<feFlood flood-opacity="0" result="BackgroundImageFix"/>
<feBlend mode="normal" in="SourceGraphic" in2="BackgroundImageFix" result="shape"/>
<feColorMatrix in="SourceAlpha" type="matrix" values="0 0 0 0 0 0 0 0 0 0 0 0 0 0 0 0 0 0 127 0" result="hardAlpha"/>
<feOffset/>
<feGaussianBlur stdDeviation="12.5"/>
<feComposite in2="hardAlpha" operator="arithmetic" k2="-1" k3="1"/>
<feColorMatrix type="matrix" values="0 0 0 0 0 0 0 0 0 0 0 0 0 0 0 0 0 0 0.45 0"/>
<feBlend mode="normal" in2="shape" result="effect1_innerShadow_3494_8682"/>
<feColorMatrix in="SourceAlpha" type="matrix" values="0 0 0 0 0 0 0 0 0 0 0 0 0 0 0 0 0 0 127 0" result="hardAlpha"/>
<feOffset/>
<feGaussianBlur stdDeviation="2"/>
<feComposite in2="hardAlpha" operator="arithmetic" k2="-1" k3="1"/>
<feColorMatrix type="matrix" values="0 0 0 0 1 0 0 0 0 1 0 0 0 0 1 0 0 0 0.05 0"/>
<feBlend mode="normal" in2="effect1_innerShadow_3494_8682" result="effect2_innerShadow_3494_8682"/>
</filter>
<filter id="filter1_dii_3494_8682" x="12.854" y="63.9565" width="107.193" height="85.8887" filterUnits="userSpaceOnUse" color-interpolation-filters="sRGB">
<feFlood flood-opacity="0" result="BackgroundImageFix"/>
<feColorMatrix in="SourceAlpha" type="matrix" values="0 0 0 0 0 0 0 0 0 0 0 0 0 0 0 0 0 0 127 0" result="hardAlpha"/>
<feOffset/>
<feGaussianBlur stdDeviation="12.5"/>
<feComposite in2="hardAlpha" operator="out"/>
<feColorMatrix type="matrix" values="0 0 0 0 0 0 0 0 0 0 0 0 0 0 0 0 0 0 0.45 0"/>
<feBlend mode="normal" in2="BackgroundImageFix" result="effect1_dropShadow_3494_8682"/>
<feBlend mode="normal" in="SourceGraphic" in2="effect1_dropShadow_3494_8682" result="shape"/>
<feColorMatrix in="SourceAlpha" type="matrix" values="0 0 0 0 0 0 0 0 0 0 0 0 0 0 0 0 0 0 127 0" result="hardAlpha"/>
<feOffset/>
<feGaussianBlur stdDeviation="5"/>
<feComposite in2="hardAlpha" operator="arithmetic" k2="-1" k3="1"/>
<feColorMatrix type="matrix" values="0 0 0 0 1 0 0 0 0 1 0 0 0 0 1 0 0 0 0.05 0"/>
<feBlend mode="normal" in2="shape" result="effect2_innerShadow_3494_8682"/>
<feColorMatrix in="SourceAlpha" type="matrix" values="0 0 0 0 0 0 0 0 0 0 0 0 0 0 0 0 0 0 127 0" result="hardAlpha"/>
<feOffset/>
<feGaussianBlur stdDeviation="2"/>
<feComposite in2="hardAlpha" operator="arithmetic" k2="-1" k3="1"/>
<feColorMatrix type="matrix" values="0 0 0 0 0 0 0 0 0 0 0 0 0 0 0 0 0 0 0.75 0"/>
<feBlend mode="normal" in2="effect2_innerShadow_3494_8682" result="effect3_innerShadow_3494_8682"/>
</filter>
<filter id="filter2_dii_3494_8682" x="12.854" y="0.0288086" width="107.198" height="87.0103" filterUnits="userSpaceOnUse" color-interpolation-filters="sRGB">
<feFlood flood-opacity="0" result="BackgroundImageFix"/>
<feColorMatrix in="SourceAlpha" type="matrix" values="0 0 0 0 0 0 0 0 0 0 0 0 0 0 0 0 0 0 127 0" result="hardAlpha"/>
<feOffset/>
<feGaussianBlur stdDeviation="12.5"/>
<feComposite in2="hardAlpha" operator="out"/>
<feColorMatrix type="matrix" values="0 0 0 0 0 0 0 0 0 0 0 0 0 0 0 0 0 0 0.45 0"/>
<feBlend mode="normal" in2="BackgroundImageFix" result="effect1_dropShadow_3494_8682"/>
<feBlend mode="normal" in="SourceGraphic" in2="effect1_dropShadow_3494_8682" result="shape"/>
<feColorMatrix in="SourceAlpha" type="matrix" values="0 0 0 0 0 0 0 0 0 0 0 0 0 0 0 0 0 0 127 0" result="hardAlpha"/>
<feOffset/>
<feGaussianBlur stdDeviation="5"/>
<feComposite in2="hardAlpha" operator="arithmetic" k2="-1" k3="1"/>
<feColorMatrix type="matrix" values="0 0 0 0 1 0 0 0 0 1 0 0 0 0 1 0 0 0 0.05 0"/>
<feBlend mode="normal" in2="shape" result="effect2_innerShadow_3494_8682"/>
<feColorMatrix in="SourceAlpha" type="matrix" values="0 0 0 0 0 0 0 0 0 0 0 0 0 0 0 0 0 0 127 0" result="hardAlpha"/>
<feOffset/>
<feGaussianBlur stdDeviation="2"/>
<feComposite in2="hardAlpha" operator="arithmetic" k2="-1" k3="1"/>
<feColorMatrix type="matrix" values="0 0 0 0 0 0 0 0 0 0 0 0 0 0 0 0 0 0 0.75 0"/>
<feBlend mode="normal" in2="effect2_innerShadow_3494_8682" result="effect3_innerShadow_3494_8682"/>
</filter>
<filter id="filter3_dii_3494_8682" x="12.854" y="38.1606" width="107.198" height="74.6738" filterUnits="userSpaceOnUse" color-interpolation-filters="sRGB">
<feFlood flood-opacity="0" result="BackgroundImageFix"/>
<feColorMatrix in="SourceAlpha" type="matrix" values="0 0 0 0 0 0 0 0 0 0 0 0 0 0 0 0 0 0 127 0" result="hardAlpha"/>
<feOffset/>
<feGaussianBlur stdDeviation="12.5"/>
<feComposite in2="hardAlpha" operator="out"/>
<feColorMatrix type="matrix" values="0 0 0 0 0 0 0 0 0 0 0 0 0 0 0 0 0 0 0.45 0"/>
<feBlend mode="normal" in2="BackgroundImageFix" result="effect1_dropShadow_3494_8682"/>
<feBlend mode="normal" in="SourceGraphic" in2="effect1_dropShadow_3494_8682" result="shape"/>
<feColorMatrix in="SourceAlpha" type="matrix" values="0 0 0 0 0 0 0 0 0 0 0 0 0 0 0 0 0 0 127 0" result="hardAlpha"/>
<feOffset/>
<feGaussianBlur stdDeviation="5"/>
<feComposite in2="hardAlpha" operator="arithmetic" k2="-1" k3="1"/>
<feColorMatrix type="matrix" values="0 0 0 0 1 0 0 0 0 1 0 0 0 0 1 0 0 0 0.05 0"/>
<feBlend mode="normal" in2="shape" result="effect2_innerShadow_3494_8682"/>
<feColorMatrix in="SourceAlpha" type="matrix" values="0 0 0 0 0 0 0 0 0 0 0 0 0 0 0 0 0 0 127 0" result="hardAlpha"/>
<feOffset/>
<feGaussianBlur stdDeviation="2"/>
<feComposite in2="hardAlpha" operator="arithmetic" k2="-1" k3="1"/>
<feColorMatrix type="matrix" values="0 0 0 0 0 0 0 0 0 0 0 0 0 0 0 0 0 0 0.75 0"/>
<feBlend mode="normal" in2="effect2_innerShadow_3494_8682" result="effect3_innerShadow_3494_8682"/>
</filter>
<filter id="filter4_i_3494_8682" x="10.9995" y="92" width="15.7002" height="15.7002" filterUnits="userSpaceOnUse" color-interpolation-filters="sRGB">
<feFlood flood-opacity="0" result="BackgroundImageFix"/>
<feBlend mode="normal" in="SourceGraphic" in2="BackgroundImageFix" result="shape"/>
<feColorMatrix in="SourceAlpha" type="matrix" values="0 0 0 0 0 0 0 0 0 0 0 0 0 0 0 0 0 0 127 0" result="hardAlpha"/>
<feOffset/>
<feGaussianBlur stdDeviation="1"/>
<feComposite in2="hardAlpha" operator="arithmetic" k2="-1" k3="1"/>
<feColorMatrix type="matrix" values="0 0 0 0 0 0 0 0 0 0 0 0 0 0 0 0 0 0 0.5 0"/>
<feBlend mode="normal" in2="shape" result="effect1_innerShadow_3494_8682"/>
</filter>
<filter id="filter5_i_3494_8682" x="5.3291" y="73.876" width="26.3428" height="1" filterUnits="userSpaceOnUse" color-interpolation-filters="sRGB">
<feFlood flood-opacity="0" result="BackgroundImageFix"/>
<feBlend mode="normal" in="SourceGraphic" in2="BackgroundImageFix" result="shape"/>
<feColorMatrix in="SourceAlpha" type="matrix" values="0 0 0 0 0 0 0 0 0 0 0 0 0 0 0 0 0 0 127 0" result="hardAlpha"/>
<feOffset/>
<feGaussianBlur stdDeviation="0.5"/>
<feComposite in2="hardAlpha" operator="arithmetic" k2="-1" k3="1"/>
<feColorMatrix type="matrix" values="0 0 0 0 0 0 0 0 0 0 0 0 0 0 0 0 0 0 0.79 0"/>
<feBlend mode="normal" in2="shape" result="effect1_innerShadow_3494_8682"/>
</filter>
<filter id="filter6_i_3494_8682" x="10.9995" y="41" width="15.7002" height="15.7002" filterUnits="userSpaceOnUse" color-interpolation-filters="sRGB">
<feFlood flood-opacity="0" result="BackgroundImageFix"/>
<feBlend mode="normal" in="SourceGraphic" in2="BackgroundImageFix" result="shape"/>
<feColorMatrix in="SourceAlpha" type="matrix" values="0 0 0 0 0 0 0 0 0 0 0 0 0 0 0 0 0 0 127 0" result="hardAlpha"/>
<feOffset/>
<feGaussianBlur stdDeviation="1"/>
<feComposite in2="hardAlpha" operator="arithmetic" k2="-1" k3="1"/>
<feColorMatrix type="matrix" values="0 0 0 0 0 0 0 0 0 0 0 0 0 0 0 0 0 0 0.5 0"/>
<feBlend mode="normal" in2="shape" result="effect1_innerShadow_3494_8682"/>
</filter>
<filter id="filter7_i_3494_8682" x="106.267" y="40.731" width="15.7012" height="15.7012" filterUnits="userSpaceOnUse" color-interpolation-filters="sRGB">
<feFlood flood-opacity="0" result="BackgroundImageFix"/>
<feBlend mode="normal" in="SourceGraphic" in2="BackgroundImageFix" result="shape"/>
<feColorMatrix in="SourceAlpha" type="matrix" values="0 0 0 0 0 0 0 0 0 0 0 0 0 0 0 0 0 0 127 0" result="hardAlpha"/>
<feOffset/>
<feGaussianBlur stdDeviation="1"/>
<feComposite in2="hardAlpha" operator="arithmetic" k2="-1" k3="1"/>
<feColorMatrix type="matrix" values="0 0 0 0 0 0 0 0 0 0 0 0 0 0 0 0 0 0 0.5 0"/>
<feBlend mode="normal" in2="shape" result="effect1_innerShadow_3494_8682"/>
</filter>
<filter id="filter8_i_3494_8682" x="100.659" y="73.8765" width="26.3428" height="1" filterUnits="userSpaceOnUse" color-interpolation-filters="sRGB">
<feFlood flood-opacity="0" result="BackgroundImageFix"/>
<feBlend mode="normal" in="SourceGraphic" in2="BackgroundImageFix" result="shape"/>
<feColorMatrix in="SourceAlpha" type="matrix" values="0 0 0 0 0 0 0 0 0 0 0 0 0 0 0 0 0 0 127 0" result="hardAlpha"/>
<feOffset/>
<feGaussianBlur stdDeviation="0.5"/>
<feComposite in2="hardAlpha" operator="arithmetic" k2="-1" k3="1"/>
<feColorMatrix type="matrix" values="0 0 0 0 0 0 0 0 0 0 0 0 0 0 0 0 0 0 0.79 0"/>
<feBlend mode="normal" in2="shape" result="effect1_innerShadow_3494_8682"/>
</filter>
<filter id="filter9_i_3494_8682" x="106.267" y="92.3213" width="15.7012" height="15.7012" filterUnits="userSpaceOnUse" color-interpolation-filters="sRGB">
<feFlood flood-opacity="0" result="BackgroundImageFix"/>
<feBlend mode="normal" in="SourceGraphic" in2="BackgroundImageFix" result="shape"/>
<feColorMatrix in="SourceAlpha" type="matrix" values="0 0 0 0 0 0 0 0 0 0 0 0 0 0 0 0 0 0 127 0" result="hardAlpha"/>
<feOffset/>
<feGaussianBlur stdDeviation="1"/>
<feComposite in2="hardAlpha" operator="arithmetic" k2="-1" k3="1"/>
<feColorMatrix type="matrix" values="0 0 0 0 0 0 0 0 0 0 0 0 0 0 0 0 0 0 0.5 0"/>
<feBlend mode="normal" in2="shape" result="effect1_innerShadow_3494_8682"/>
</filter>
<linearGradient id="paint0_linear_3494_8682" x1="66.2904" y1="25.0605" x2="66.2904" y2="124.789" gradientUnits="userSpaceOnUse">
<stop stop-color="#232323"/>
<stop offset="1" stop-color="#292929"/>
</linearGradient>
<linearGradient id="paint1_linear_3494_8682" x1="70.5122" y1="32.2859" x2="70.5122" y2="124.894" gradientUnits="userSpaceOnUse">
<stop stop-color="#171717"/>
<stop offset="1" stop-color="#1B1B1B"/>
</linearGradient>
<linearGradient id="paint2_linear_3494_8682" x1="70.3529" y1="25.0288" x2="70.3529" y2="124.217" gradientUnits="userSpaceOnUse">
<stop stop-color="#171717"/>
<stop offset="1" stop-color="#1B1B1B"/>
</linearGradient>
<linearGradient id="paint3_linear_3494_8682" x1="70.3529" y1="63.1606" x2="70.3529" y2="129.286" gradientUnits="userSpaceOnUse">
<stop stop-color="#171717"/>
<stop offset="1" stop-color="#1B1B1B"/>
</linearGradient>
</defs>
</svg>
