<svg width="7" height="7" viewBox="0 0 7 7" fill="none" xmlns="http://www.w3.org/2000/svg">
<g opacity="0.7">
<path d="M5.46896 1.09985V5.28134C5.46896 5.33521 5.44591 5.38688 5.40489 5.42497C5.36387 5.46307 5.30823 5.48447 5.25021 5.48447H0.74707C0.703806 5.48447 0.661513 5.47255 0.625539 5.45023C0.589566 5.42791 0.561529 5.39619 0.544972 5.35907C0.528415 5.32196 0.524083 5.28112 0.532524 5.24171C0.540964 5.20231 0.561798 5.16612 0.592391 5.13771L5.09553 0.956222C5.12612 0.927815 5.1651 0.908469 5.20754 0.900632C5.24997 0.892794 5.29395 0.896817 5.33392 0.912191C5.37389 0.927565 5.40806 0.9536 5.4321 0.987003C5.45613 1.02041 5.46896 1.05968 5.46896 1.09985Z" stroke="#DEE6EA" stroke-width="0.5" stroke-linecap="round" stroke-linejoin="round"/>
<path d="M4.375 1.625V5.48438" stroke="#DEE6EA" stroke-width="0.5" stroke-linecap="round" stroke-linejoin="round"/>
<path d="M3.28125 2.64062V5.48438" stroke="#DEE6EA" stroke-width="0.5" stroke-linecap="round" stroke-linejoin="round"/>
<path d="M2.1875 3.65625V5.48438" stroke="#DEE6EA" stroke-width="0.5" stroke-linecap="round" stroke-linejoin="round"/>
</g>
</svg>
