<svg width="15" height="17" viewBox="0 0 15 17" fill="none" xmlns="http://www.w3.org/2000/svg">
<g opacity="0.6" filter="url(#filter0_d_3500_8975)">
<path d="M11.1919 12.05L4.3169 4.48752C4.28653 4.45412 4.24988 4.42702 4.20904 4.40778C4.1682 4.38854 4.12397 4.37754 4.07887 4.37539C4.03378 4.37324 3.9887 4.38 3.94622 4.39527C3.90374 4.41054 3.86468 4.43404 3.83128 4.4644C3.79787 4.49477 3.77077 4.53142 3.75153 4.57226C3.73229 4.6131 3.72129 4.65733 3.71914 4.70243C3.71699 4.74752 3.72375 4.7926 3.73902 4.83508C3.75429 4.87756 3.77779 4.91662 3.80815 4.95003L5.43753 6.74234V8.50003C5.43745 8.87025 5.53705 9.23368 5.72587 9.55213C5.91469 9.87059 6.18577 10.1323 6.51064 10.3099C6.83552 10.4875 7.2022 10.5743 7.5722 10.5612C7.9422 10.5482 8.30186 10.4358 8.61344 10.2358L9.08072 10.7498C8.6901 11.0244 8.23472 11.1926 7.75938 11.2377C7.28404 11.2829 6.80515 11.2034 6.36982 11.0073C5.9345 10.8111 5.55776 10.505 5.27669 10.119C4.99561 9.73304 4.81989 9.28053 4.76681 8.80601C4.75676 8.71543 4.71114 8.63255 4.64 8.57559C4.56885 8.51864 4.47799 8.49226 4.38741 8.50228C4.29682 8.51229 4.21392 8.55787 4.15694 8.62899C4.09995 8.70011 4.07353 8.79095 4.08351 8.88154C4.16956 9.6636 4.52183 10.3923 5.08127 10.9455C5.6407 11.4988 6.3733 11.8429 7.15628 11.9202V12.9688C7.15628 13.0599 7.19249 13.1474 7.25696 13.2118C7.32142 13.2763 7.40886 13.3125 7.50003 13.3125C7.59119 13.3125 7.67863 13.2763 7.74309 13.2118C7.80756 13.1474 7.84378 13.0599 7.84378 12.9688V11.9199C8.46032 11.8586 9.04869 11.6312 9.5462 11.2619L10.6832 12.5125C10.7445 12.58 10.8301 12.6203 10.9212 12.6247C11.0123 12.629 11.1013 12.597 11.1688 12.5356C11.2362 12.4743 11.2766 12.3887 11.2809 12.2976C11.2853 12.2066 11.2532 12.1175 11.1919 12.05H11.1919Z" fill="#DAE8EF"/>
<path d="M8.96445 8.5778C9.01112 8.62913 9.07224 8.66515 9.13976 8.6811C9.20728 8.69705 9.27805 8.6922 9.34277 8.66718C9.40748 8.64216 9.46311 8.59814 9.50234 8.54091C9.54157 8.48369 9.56257 8.41593 9.56257 8.34655V5.75C9.56253 5.3012 9.41611 4.86466 9.14553 4.5066C8.87495 4.14854 8.49498 3.8885 8.06324 3.76593C7.63151 3.64335 7.17158 3.66493 6.75321 3.82738C6.33485 3.98984 5.98089 4.28431 5.74502 4.66613C5.70574 4.72963 5.6882 4.80419 5.69505 4.87854C5.70191 4.95289 5.73277 5.02299 5.783 5.07824L8.96445 8.5778Z" fill="#DAE8EF"/>
<path d="M10.2571 9.94653C10.2991 9.96301 10.344 9.97105 10.3892 9.97017C10.4343 9.9693 10.4788 9.95953 10.5202 9.94142C10.5616 9.92332 10.5989 9.89724 10.6302 9.86467C10.6615 9.8321 10.686 9.79368 10.7024 9.75162C10.8116 9.47222 10.8836 9.17967 10.9165 8.8815C10.9265 8.79089 10.9002 8.70001 10.8432 8.62885C10.7862 8.5577 10.7033 8.5121 10.6126 8.50208C10.522 8.49207 10.4312 8.51846 10.36 8.57545C10.2888 8.63244 10.2432 8.71536 10.2332 8.80597C10.2069 9.0442 10.1494 9.27794 10.0622 9.50119C10.029 9.58609 10.0309 9.68071 10.0674 9.76423C10.104 9.84774 10.1722 9.91332 10.2571 9.94653Z" fill="#DAE8EF"/>
</g>
<defs>
<filter id="filter0_d_3500_8975" x="-1" y="0" width="17" height="17" filterUnits="userSpaceOnUse" color-interpolation-filters="sRGB">
<feFlood flood-opacity="0" result="BackgroundImageFix"/>
<feColorMatrix in="SourceAlpha" type="matrix" values="0 0 0 0 0 0 0 0 0 0 0 0 0 0 0 0 0 0 127 0" result="hardAlpha"/>
<feOffset/>
<feGaussianBlur stdDeviation="1.5"/>
<feComposite in2="hardAlpha" operator="out"/>
<feColorMatrix type="matrix" values="0 0 0 0 0.9 0 0 0 0 0.9 0 0 0 0 0.9 0 0 0 0.45 0"/>
<feBlend mode="normal" in2="BackgroundImageFix" result="effect1_dropShadow_3500_8975"/>
<feBlend mode="normal" in="SourceGraphic" in2="effect1_dropShadow_3500_8975" result="shape"/>
</filter>
</defs>
</svg>
