<svg width="11" height="10" viewBox="0 0 11 10" fill="none" xmlns="http://www.w3.org/2000/svg">
<path fill-rule="evenodd" clip-rule="evenodd" d="M5.49985 0.859863L5.7132 1.03055C5.8205 1.06172 5.92013 1.11625 6.00407 1.19109L6.85241 1.94191L10.8122 5.10974L10.1875 5.89061L9.99985 5.74049V9.27002C9.99962 9.4636 9.92053 9.64919 9.77993 9.78607C9.63932 9.92296 9.44869 9.99995 9.24985 10.0002H7V6.1C7 6.04477 6.95523 6 6.9 6H4.1C4.04477 6 4 6.04477 4 6.1V10.0002H1.74985C1.551 9.99995 1.36037 9.92296 1.21977 9.78607C1.07917 9.64919 1.00007 9.4636 0.999847 9.27002V5.74049L0.812195 5.89061L0.1875 5.10974L4.14291 1.94541L4.99503 1.19113C5.0792 1.11607 5.17916 1.06144 5.2868 1.0303L5.49985 0.859863Z" fill="white" fill-opacity="0.8"/>
</svg>
