<svg width="13" height="17" viewBox="0 0 13 17" fill="none" xmlns="http://www.w3.org/2000/svg">
<g filter="url(#filter0_d_3499_8822)">
<path d="M6.49976 10.5623C7.04653 10.5617 7.57075 10.3442 7.95741 9.95764C8.34407 9.57105 8.56159 9.04686 8.56226 8.50009V5.74976C8.56226 5.20275 8.34496 4.67814 7.95816 4.29135C7.57137 3.90455 7.04676 3.68726 6.49976 3.68726C5.95275 3.68726 5.42814 3.90455 5.04135 4.29135C4.65455 4.67814 4.43726 5.20275 4.43726 5.74976V8.49976C4.43785 9.04658 4.65534 9.57084 5.04201 9.9575C5.42867 10.3442 5.95293 10.5617 6.49976 10.5623Z" fill="#DAE8EF"/>
<path d="M9.61235 8.50223C9.52188 8.49314 9.43147 8.51991 9.36054 8.57679C9.2896 8.63366 9.24382 8.71609 9.23301 8.80636C9.15756 9.47848 8.83709 10.0992 8.33286 10.55C7.82863 11.0008 7.17599 11.2499 6.49965 11.2499C5.82331 11.2498 5.1707 11.0006 4.66652 10.5498C4.16235 10.0989 3.84196 9.47815 3.76658 8.80603C3.75549 8.71591 3.70961 8.6337 3.63874 8.57694C3.56787 8.52018 3.47762 8.49337 3.38725 8.50223C3.2966 8.5123 3.21365 8.55794 3.15662 8.62913C3.09959 8.70032 3.07316 8.79123 3.08311 8.8819C3.17062 9.66195 3.52376 10.3882 4.08329 10.9387C4.64282 11.4892 5.37468 11.8305 6.15605 11.9054V12.9686C6.15605 13.0598 6.19227 13.1472 6.25673 13.2117C6.3212 13.2762 6.40863 13.3124 6.4998 13.3124C6.59097 13.3124 6.6784 13.2762 6.74287 13.2117C6.80733 13.1472 6.84355 13.0598 6.84355 12.9686V11.9054C7.62505 11.8307 8.35705 11.4894 8.91662 10.9388C9.47619 10.3882 9.82924 9.66176 9.91649 8.88156C9.92643 8.79093 9.89998 8.70006 9.84295 8.62893C9.78592 8.55779 9.70297 8.51222 9.61235 8.50223Z" fill="#DAE8EF"/>
</g>
<defs>
<filter id="filter0_d_3499_8822" x="-2" y="0" width="17" height="17" filterUnits="userSpaceOnUse" color-interpolation-filters="sRGB">
<feFlood flood-opacity="0" result="BackgroundImageFix"/>
<feColorMatrix in="SourceAlpha" type="matrix" values="0 0 0 0 0 0 0 0 0 0 0 0 0 0 0 0 0 0 127 0" result="hardAlpha"/>
<feOffset/>
<feGaussianBlur stdDeviation="1.5"/>
<feComposite in2="hardAlpha" operator="out"/>
<feColorMatrix type="matrix" values="0 0 0 0 0.898039 0 0 0 0 0.898039 0 0 0 0 0.898039 0 0 0 0.45 0"/>
<feBlend mode="normal" in2="BackgroundImageFix" result="effect1_dropShadow_3499_8822"/>
<feBlend mode="normal" in="SourceGraphic" in2="effect1_dropShadow_3499_8822" result="shape"/>
</filter>
</defs>
</svg>
