<svg width="10" height="9" viewBox="0 0 10 9" fill="none" xmlns="http://www.w3.org/2000/svg">
<g opacity="0.8" filter="url(#filter0_i_1718_7865)">
<path d="M7.60536 7.40457L1.9168 1.21707C1.89167 1.18973 1.86135 1.16757 1.82755 1.15182C1.79376 1.13608 1.75716 1.12707 1.71985 1.12532C1.68254 1.12356 1.64524 1.12909 1.61009 1.14159C1.57494 1.15408 1.54262 1.1733 1.51498 1.19815C1.48734 1.223 1.46492 1.25298 1.449 1.2864C1.43308 1.31981 1.42397 1.356 1.4222 1.39289C1.42042 1.42979 1.42601 1.46667 1.43865 1.50143C1.45129 1.53619 1.47072 1.56815 1.49585 1.59548L2.84404 3.06191V4.50002C2.84397 4.80294 2.92639 5.10028 3.08262 5.36084C3.23886 5.62139 3.46315 5.83555 3.73196 5.98083C4.00077 6.1261 4.30417 6.19714 4.61032 6.18647C4.91647 6.17581 5.21407 6.08384 5.47187 5.92022L5.85851 6.34078C5.53531 6.56544 5.15851 6.70301 4.7652 6.73994C4.37189 6.77688 3.97564 6.7119 3.61544 6.55141C3.25525 6.39092 2.94352 6.14045 2.71095 5.82465C2.47838 5.50885 2.33298 5.13861 2.28907 4.75037C2.28075 4.67626 2.24301 4.60845 2.18414 4.56185C2.12527 4.51525 2.05009 4.49367 1.97514 4.50186C1.90019 4.51006 1.8316 4.54735 1.78444 4.60554C1.73729 4.66373 1.71543 4.73805 1.72368 4.81217C1.79489 5.45204 2.08637 6.04826 2.54926 6.5009C3.01215 6.95354 3.61832 7.23509 4.26618 7.29835V8.15627C4.26618 8.23086 4.29614 8.3024 4.34948 8.35514C4.40282 8.40789 4.47517 8.43752 4.5506 8.43752C4.62604 8.43752 4.69838 8.40789 4.75173 8.35514C4.80507 8.3024 4.83503 8.23086 4.83503 8.15627V7.29814C5.34518 7.24794 5.83201 7.06186 6.24367 6.75972L7.18441 7.78298C7.23516 7.83817 7.306 7.87118 7.38136 7.87472C7.45671 7.87827 7.53041 7.85207 7.58623 7.80189C7.64205 7.75171 7.67543 7.68166 7.67901 7.60715C7.6826 7.53263 7.65611 7.45976 7.60536 7.40457H7.60536Z" fill="white"/>
<path d="M5.76253 4.56365C5.80115 4.60565 5.85172 4.63512 5.90759 4.64817C5.96346 4.66122 6.02202 4.65725 6.07557 4.63678C6.12911 4.61631 6.17514 4.5803 6.2076 4.53347C6.24006 4.48665 6.25744 4.43121 6.25744 4.37445V2.25C6.2574 1.8828 6.13625 1.52563 5.91237 1.23268C5.68849 0.939718 5.37408 0.726957 5.01686 0.626667C4.65963 0.526376 4.27907 0.54403 3.9329 0.676949C3.58674 0.809869 3.29386 1.0508 3.0987 1.3632C3.0662 1.41515 3.05168 1.47615 3.05735 1.53699C3.06302 1.59782 3.08856 1.65517 3.13012 1.70038L5.76253 4.56365Z" fill="white"/>
<path d="M6.83218 5.68352C6.86696 5.69701 6.90409 5.70359 6.94145 5.70287C6.9788 5.70215 7.01564 5.69416 7.04987 5.67935C7.0841 5.66453 7.11503 5.64319 7.14091 5.61655C7.16678 5.5899 7.18709 5.55847 7.20067 5.52405C7.29103 5.29545 7.35058 5.05609 7.37781 4.81214C7.3861 4.738 7.36426 4.66364 7.31711 4.60543C7.26995 4.54721 7.20134 4.5099 7.12637 4.5017C7.05139 4.49351 6.9762 4.5151 6.91732 4.56173C6.85845 4.60836 6.82071 4.6762 6.81243 4.75034C6.79065 4.94525 6.74307 5.1365 6.67091 5.31915C6.64343 5.38862 6.64499 5.46603 6.67523 5.53437C6.70548 5.6027 6.76193 5.65635 6.83218 5.68352Z" fill="white"/>
</g>
<defs>
<filter id="filter0_i_1718_7865" x="0" y="0" width="9.10156" height="9" filterUnits="userSpaceOnUse" color-interpolation-filters="sRGB">
<feFlood flood-opacity="0" result="BackgroundImageFix"/>
<feBlend mode="normal" in="SourceGraphic" in2="BackgroundImageFix" result="shape"/>
<feColorMatrix in="SourceAlpha" type="matrix" values="0 0 0 0 0 0 0 0 0 0 0 0 0 0 0 0 0 0 127 0" result="hardAlpha"/>
<feOffset/>
<feGaussianBlur stdDeviation="1"/>
<feComposite in2="hardAlpha" operator="arithmetic" k2="-1" k3="1"/>
<feColorMatrix type="matrix" values="0 0 0 0 0 0 0 0 0 0 0 0 0 0 0 0 0 0 0.5 0"/>
<feBlend mode="normal" in2="shape" result="effect1_innerShadow_1718_7865"/>
</filter>
</defs>
</svg>
