<svg width="5" height="5" viewBox="0 0 5 5" fill="none" xmlns="http://www.w3.org/2000/svg">
<g opacity="0.6">
<path d="M3.03741 0.484611C3.01115 0.47177 2.9818 0.466564 2.95272 0.469586C2.92364 0.472607 2.89599 0.483735 2.87292 0.501701L1.50879 1.56249H0.625C0.542145 1.56257 0.462707 1.59552 0.40412 1.65411C0.345532 1.7127 0.312582 1.79214 0.3125 1.87499V3.12499C0.312582 3.20785 0.345532 3.28729 0.40412 3.34587C0.462707 3.40446 0.542145 3.43741 0.625 3.43749H1.50879L2.87292 4.49828C2.896 4.51625 2.92366 4.52738 2.95275 4.5304C2.98184 4.53341 3.01119 4.5282 3.03746 4.51535C3.06373 4.5025 3.08587 4.48253 3.10134 4.45772C3.11682 4.4329 3.12502 4.40424 3.125 4.37499V0.624992C3.12502 0.595737 3.11682 0.567065 3.10133 0.542245C3.08585 0.517424 3.0637 0.497454 3.03741 0.484611Z" fill="#DAE8EF"/>
<path d="M3.75 1.875C3.70856 1.875 3.66882 1.89146 3.63952 1.92077C3.61021 1.95007 3.59375 1.98981 3.59375 2.03125V2.96875C3.59375 3.01019 3.61021 3.04993 3.63951 3.07924C3.66882 3.10854 3.70856 3.125 3.75 3.125C3.79144 3.125 3.83118 3.10854 3.86049 3.07924C3.88979 3.04993 3.90625 3.01019 3.90625 2.96875V2.03125C3.90625 1.98981 3.88979 1.95007 3.86048 1.92077C3.83118 1.89146 3.79144 1.875 3.75 1.875Z" fill="#DAE8EF"/>
<path d="M4.375 1.5625C4.33356 1.5625 4.29382 1.57896 4.26452 1.60827C4.23521 1.63757 4.21875 1.67731 4.21875 1.71875V3.28125C4.21875 3.32269 4.23521 3.36243 4.26451 3.39174C4.29382 3.42104 4.33356 3.4375 4.375 3.4375C4.41644 3.4375 4.45618 3.42104 4.48549 3.39174C4.51479 3.36243 4.53125 3.32269 4.53125 3.28125V1.71875C4.53125 1.67731 4.51479 1.63757 4.48548 1.60827C4.45618 1.57896 4.41644 1.5625 4.375 1.5625Z" fill="#DAE8EF"/>
</g>
</svg>
